<?xml version="1.0" standalone="no"?>
<!DOCTYPE svg PUBLIC "-//W3C//DTD SVG 20010904//EN"
 "http://www.w3.org/TR/2001/REC-SVG-20010904/DTD/svg10.dtd">
<svg version="1.0" xmlns="http://www.w3.org/2000/svg"
 width="512.000000pt" height="512.000000pt" viewBox="0 0 512.000000 512.000000"
 preserveAspectRatio="xMidYMid meet">
<metadata>
Created by potrace 1.14, written by Peter Selinger 2001-2017
</metadata>
<g transform="translate(0.000000,512.000000) scale(0.100000,-0.100000)"
fill="#000000" stroke="none">
<path d="M110 4438 c0 -3 51 -54 113 -112 210 -196 322 -276 447 -319 l65 -22
1473 -3 c809 -1 1472 -5 1472 -7 0 -6 -148 -223 -470 -690 -261 -380 -810
-1197 -990 -1475 -123 -189 -188 -305 -178 -315 6 -7 372 349 1163 1129 396
391 973 958 1283 1260 309 302 560 551 557 554 -8 8 -4935 8 -4935 0z"/>
<path d="M750 3888 c8 -8 47 -42 86 -76 l71 -62 741 7 c408 3 742 10 742 15 0
4 -6 8 -14 8 -8 0 -76 7 -152 15 -169 17 -572 48 -984 75 -542 36 -507 34
-490 18z"/>
<path d="M2750 3243 c-195 -191 -724 -709 -1175 -1152 -451 -443 -896 -880
-990 -971 -93 -91 -244 -238 -335 -327 l-165 -163 2495 1 2495 0 -120 116
c-247 238 -379 323 -530 344 -56 8 -500 10 -1507 8 -784 -2 -1429 -1 -1433 3
-4 3 87 143 201 310 254 370 1312 1954 1376 2058 47 77 66 120 51 120 -4 -1
-168 -157 -363 -347z"/>
<path d="M2765 1311 l-50 -7 50 -7 c99 -14 745 -63 1220 -92 138 -9 291 -20
342 -25 51 -6 97 -10 102 -10 6 0 -27 34 -74 75 l-84 75 -728 -2 c-400 0 -750
-4 -778 -7z"/>
</g>
</svg>
