<svg class="img-fluid" id="outputsvg" xmlns="http://www.w3.org/2000/svg" style="transform: scale(200%);" width="2048" height="2048" viewBox="0 0 20480 20480"><g id="l5kEM0XSvtMRzleNnEonxKU" fill="rgb(0,0,0)" style="transform: none;"><g><path id="p6hQNKNTM" d="M5260 14051 c0 -5 138 -143 308 -307 169 -164 379 -369 467 -454 88 -86 246 -239 350 -340 105 -102 300 -293 435 -425 135 -132 358 -351 495 -485 138 -135 417 -409 620 -610 204 -201 507 -500 675 -665 168 -165 438 -430 600 -590 407 -400 912 -893 1290 -1260 85 -82 299 -293 476 -467 l320 -318 12 0 12 0 0 21 0 21 -34 66 c-55 110 -82 152 -1054 1611 -892 1338 -1269 1898 -1919 2851 l-290 425 2971 5 2971 5 65 17 c36 9 97 28 135 42 l70 27 85 51 c109 65 238 163 365 273 150 131 535 494 535 505 l0 10 -4980 0 -4980 0 0 -9z"></path><path id="pZyy4PyqM" d="M13725 12959 l-170 -18 -495 -31 c-610 -37 -988 -63 -1410 -96 -502 -38 -556 -43 -844 -69 l-270 -25 -9 -9 -9 -9 33 -7 33 -7 1510 -7 1511 -7 27 21 c15 11 89 74 164 140 76 66 145 125 153 132 l16 12 -35 -1 c-19 0 -111 -9 -205 -19z"></path><path id="pHalfYt43" d="M9166 12308 c15 -52 78 -177 126 -252 208 -327 359 -558 773 -1181 419 -631 975 -1457 1150 -1710 34 -49 167 -243 295 -430 129 -187 288 -419 355 -515 67 -96 215 -312 330 -480 114 -168 216 -316 226 -329 11 -13 19 -28 19 -32 l0 -9 -2762 0 -2763 0 -146 -10 -146 -9 -99 -21 -99 -22 -89 -35 -89 -35 -76 -45 c-163 -96 -362 -259 -690 -567 l-204 -191 4958 -3 c2727 -1 4960 -1 4962 1 3 4 -205 210 -477 473 -91 87 -262 254 -380 369 -118 116 -379 370 -580 565 -568 551 -1107 1081 -1990 1956 -770 763 -1347 1332 -1555 1534 -105 102 -269 262 -365 355 -96 94 -286 277 -422 408 l-246 237 -12 0 -11 0 7 -22z"></path><path id="pG3wIAHd2" d="M6740 7685 c-80 -69 -156 -138 -170 -152 l-25 -25 75 6 c41 4 125 11 185 16 61 5 324 23 585 40 608 38 985 64 1385 95 346 27 393 31 800 71 l270 26 20 11 20 12 -105 6 -105 6 -1395 7 -1395 8 -145 -127z"></path></g></g></svg>